# xmcd CD database file
#
# Track frame offsets:
#	150
#	36597
#	63364
#	83861
#	118510
#	151407
#	175797
#	187815
#	224013
#	250790
#	275173
#
# Disc length: 4234 seconds
#
# Revision: 0
# Processed by: cddbd v1.5.1PL0 Copyright (c) Steve Scherf et al.
# Submitted via: CDex 1.51
#
DISCID=9d10880b
DTITLE=Jimmy Smith - Jimmy Smith
DYEAR=1900
DGENRE=Jazz
TTITLE0=Back at the Chicken Shack
TTITLE1=Baby its cold outside
TTITLE2=Christmas Song
TTITLE3=Watermelon Man
TTITLE4=Round Midnight
TTITLE5=Blues and the abstract Truth
TTITLE6=Ode to Billie Joe
TTITLE7=Fifth
TTITLE8=Walk on the Wild Side
TTITLE9=There will never be another you
TTITLE10=Lush Life
EXTD=
EXTT0=
EXTT1=
EXTT2=
EXTT3=
EXTT4=
EXTT5=
EXTT6=
EXTT7=
EXTT8=
EXTT9=
EXTT10=
PLAYORDER=
